<mxfile host="app.diagrams.net" modified="2023-10-12T12:29:33.954Z" agent="Mozilla/5.0 (Windows NT 10.0; Win64; x64) AppleWebKit/537.36 (KHTML, like Gecko) Chrome/117.0.0.0 Safari/537.36" etag="zQnowwUfmWebbe3cwLMh" version="22.0.4" type="github">
  <diagram name="Página-1" id="KQURef7OF_sbYggJzPEF">
    <mxGraphModel dx="2577" dy="957" grid="1" gridSize="10" guides="1" tooltips="1" connect="1" arrows="1" fold="1" page="1" pageScale="1" pageWidth="827" pageHeight="1169" math="0" shadow="0">
      <root>
        <mxCell id="0" />
        <mxCell id="1" parent="0" />
        <mxCell id="VaUqc74PP2qwAAMpVHkm-2" value="&lt;span style=&quot;&quot; lang=&quot;ES&quot;&gt;&lt;font style=&quot;font-size: 18px;&quot;&gt;&lt;b&gt;Modelo de información del territorio&lt;/b&gt;&lt;/font&gt;&lt;/span&gt;" style="text;whiteSpace=wrap;html=1;" parent="1" vertex="1">
          <mxGeometry x="1071" y="20" width="340" height="60" as="geometry" />
        </mxCell>
        <mxCell id="VaUqc74PP2qwAAMpVHkm-3" value="&lt;h1 style=&quot;text-align: center;&quot;&gt;Situación actual&lt;/h1&gt;&lt;p style=&quot;margin-top:3.0pt;mso-add-space:auto;&lt;br/&gt;text-align:justify;text-indent:-18.0pt;mso-list:l0 level1 lfo1;tab-stops:list 36.0pt&quot; class=&quot;MsoListParagraphCxSpFirst&quot;&gt;&lt;/p&gt;&lt;i style=&quot;text-align: justify; background-color: initial;&quot;&gt;&lt;ul&gt;&lt;font style=&quot;font-size: 14px;&quot;&gt;&lt;li&gt;&lt;i style=&quot;text-align: justify; background-color: initial;&quot;&gt;&lt;span style=&quot;font-family: Arial, sans-serif;&quot; lang=&quot;ES&quot;&gt;Deterioro en relacionamiento con municipios del área metropolitana del&amp;nbsp;&lt;/span&gt;&lt;/i&gt;&lt;i style=&quot;text-align: justify; background-color: initial;&quot;&gt;&lt;span style=&quot;font-family: Arial, sans-serif;&quot; lang=&quot;ES&quot;&gt;valle de Aburrá y del valle de San Nicolás por las intervenciones en la malla&amp;nbsp;&lt;/span&gt;&lt;/i&gt;&lt;i style=&quot;text-align: justify; background-color: initial;&quot;&gt;&lt;span style=&quot;font-family: Arial, sans-serif;&quot; lang=&quot;ES&quot;&gt;vial y su posterior pavimentación.&lt;/span&gt;&lt;/i&gt;&lt;/li&gt;&lt;li&gt;&lt;i style=&quot;text-align: justify; background-color: initial; text-indent: -18pt;&quot;&gt;&lt;span style=&quot;font-family: Arial, sans-serif;&quot; lang=&quot;ES&quot;&gt;Falta de mecanismos centralizados para atender nuevos requerimientos de&amp;nbsp;&lt;/span&gt;&lt;/i&gt;&lt;i style=&quot;text-align: justify; background-color: initial;&quot;&gt;&lt;span style=&quot;font-family: Arial, sans-serif;&quot; lang=&quot;ES&quot;&gt;información de los distintos grupos de interés en el territorio.&lt;/span&gt;&lt;/i&gt;&lt;/li&gt;&lt;li&gt;&lt;i style=&quot;text-align: justify; background-color: initial; text-indent: -18pt;&quot;&gt;&lt;span style=&quot;font-family: Arial, sans-serif;&quot; lang=&quot;ES&quot;&gt;Ausencia de un equipo especializado que se encargue de forma integral de&amp;nbsp;&lt;/span&gt;&lt;/i&gt;&lt;i style=&quot;text-align: justify; background-color: initial;&quot;&gt;&lt;span style=&quot;font-family: Arial, sans-serif;&quot; lang=&quot;ES&quot;&gt;la información del territorio.&lt;/span&gt;&lt;/i&gt;&lt;/li&gt;&lt;/font&gt;&lt;/ul&gt;&lt;/i&gt;&lt;p&gt;&lt;/p&gt;" style="text;html=1;strokeColor=none;fillColor=none;spacing=5;spacingTop=-20;whiteSpace=wrap;overflow=hidden;rounded=0;" parent="1" vertex="1">
          <mxGeometry x="840" y="80" width="360" height="240" as="geometry" />
        </mxCell>
        <mxCell id="VaUqc74PP2qwAAMpVHkm-4" value="&lt;h1 style=&quot;text-align: center;&quot;&gt;Escenario óptimo&lt;/h1&gt;&lt;p style=&quot;margin-top:3.0pt;mso-add-space:auto;&lt;br/&gt;text-align:justify;text-indent:-18.0pt;mso-list:l0 level1 lfo1;tab-stops:list 36.0pt&quot; class=&quot;MsoListParagraphCxSpFirst&quot;&gt;&lt;/p&gt;&lt;i style=&quot;text-align: justify; background-color: initial;&quot;&gt;&lt;ul&gt;&lt;font style=&quot;font-size: 14px;&quot;&gt;&lt;li style=&quot;&quot;&gt;&lt;font style=&quot;&quot; face=&quot;Arial, sans-serif&quot;&gt;Obtener sinergias entre gobierno, sociedad, empresas y el grupo EPM.&lt;/font&gt;&lt;/li&gt;&lt;li style=&quot;&quot;&gt;Mejorar los flujos de trabajo y la integración de los datos entre los distintos actores del territorio&lt;/li&gt;&lt;li style=&quot;text-indent: -24px;&quot;&gt;&amp;nbsp; &amp;nbsp;Tomar mejores decisiones a la hora de planificar, diseñar, construir y explotar la infraestructura en los territorios.&lt;/li&gt;&lt;li style=&quot;text-indent: -24px;&quot;&gt;&amp;nbsp; &amp;nbsp;Construir infraestructuras más conectadas, resilientes y sostenibles.&amp;nbsp;&lt;/li&gt;&lt;/font&gt;&lt;/ul&gt;&lt;/i&gt;&lt;p&gt;&lt;/p&gt;" style="text;html=1;strokeColor=none;fillColor=none;spacing=5;spacingTop=-20;whiteSpace=wrap;overflow=hidden;rounded=0;" parent="1" vertex="1">
          <mxGeometry x="1270" y="80" width="380" height="210" as="geometry" />
        </mxCell>
        <mxCell id="VaUqc74PP2qwAAMpVHkm-5" value="" style="shape=flexArrow;endArrow=classic;html=1;rounded=0;exitX=0.5;exitY=1;exitDx=0;exitDy=0;" parent="1" source="VaUqc74PP2qwAAMpVHkm-4" edge="1">
          <mxGeometry width="50" height="50" relative="1" as="geometry">
            <mxPoint x="1410" y="390" as="sourcePoint" />
            <mxPoint x="1460" y="360" as="targetPoint" />
          </mxGeometry>
        </mxCell>
        <mxCell id="VaUqc74PP2qwAAMpVHkm-6" value="¿Cómo?" style="text;html=1;strokeColor=none;fillColor=none;align=center;verticalAlign=middle;whiteSpace=wrap;rounded=0;" parent="1" vertex="1">
          <mxGeometry x="1490" y="310" width="60" height="30" as="geometry" />
        </mxCell>
        <mxCell id="VaUqc74PP2qwAAMpVHkm-7" value="&lt;p style=&quot;text-align:justify&quot; class=&quot;MsoNormal&quot;&gt;&lt;i&gt;Facilitar la visualización conjunta de las redes de dichos servicios, junto con los planes de ordenamiento territorial, proyectos e intervenciones a la malla vial por parte de los municipios; con el fin de ofrecer la facilidad de coordinar las intervenciones a la malla vial y de este modo trabajar de manera conjunta con los entes territoriales.&lt;/i&gt;&lt;/p&gt;" style="text;whiteSpace=wrap;html=1;" parent="1" vertex="1">
          <mxGeometry x="1310" y="360" width="340" height="150" as="geometry" />
        </mxCell>
        <mxCell id="VaUqc74PP2qwAAMpVHkm-8" value="HU02&lt;i&gt;Funcionalidad&lt;br&gt;cargue y actualización de información al modelo&lt;/i&gt;&lt;br&gt;(Acueducto y alcantarillado)" style="rounded=0;whiteSpace=wrap;html=1;" parent="1" vertex="1">
          <mxGeometry x="331" y="10" width="239" height="60" as="geometry" />
        </mxCell>
        <mxCell id="VaUqc74PP2qwAAMpVHkm-9" value="MDA" style="shape=cylinder3;whiteSpace=wrap;html=1;boundedLbl=1;backgroundOutline=1;size=15;" parent="1" vertex="1">
          <mxGeometry x="271" y="105" width="60" height="80" as="geometry" />
        </mxCell>
        <mxCell id="VaUqc74PP2qwAAMpVHkm-10" value="" style="shape=image;verticalLabelPosition=bottom;labelBackgroundColor=default;verticalAlign=top;aspect=fixed;imageAspect=0;image=data:image/png,iVBORw0KGgoAAAANSUhEUgAAAOEAAADhCAMAAAAJbSJIAAAAb1BMVEUAAAD////Dw8Pf39/k5OSlpaWtra309PSLi4uSkpJKSkqHh4djY2PGxsbKysrz8/Pt7e01NTVYWFi2trY/Pz9dXV2qqqqdnZ2AgIBBQUHU1NTh4eElJSUVFRUrKytoaGhycnIyMjINDQ0bGxt6enpw3qhqAAAEfUlEQVR4nO3d627iMBCG4UnLGQqFUA6lLdBy/9e4rNarEsg48djxONH3/uxK3jyF4mBHMmVBehqtPsmrQ2G8+XibzxdBLo0CjDHc+eEehbN/P1tuh/5XF0A4COArCp9+f7zzNvoLZ0GABeH49h+ePK/PW7gPA+SFNPa7QF/hKhDQIqSZ1xV6CrehgDYhnX0+Vf2Eh2BAq5DoXUv4FktIAx3hazhglZB2KsJwf4XVQlppCCcxhfTdiy8MCKwhFE7+PsKQf4a1hLSNLAw4V9QU0jGu8Dm+kJbOd+JtE7pP/u0TUt55IU07L3Sb/FsppJ/XrguJ5p0XUr/zQjp1XkjrepN/i4VEz50X1pr82y2kUeeF9NZ5IX1UTf7Vwl4+mk3+t74dLwlh5ZeNKmG+LA53u1aSiLBi8rcL5z/3o6UopItYOH0cLEkh7YXCshXtNIW0FAmPZUMlKrTMGrywfEE7VSF/e8MKe+UDJSv8dBYym9eNCW/vovuSAbgXkRMyL2Fzwtsv7S+SAbjFG07IvVEaExZeAtEIjsIvZpjGhIUlwpFkBGZrihEu6gwTVLgu/P8fghGY+1NGyF58Y0IqPI0g2dZilt8Y4Zwbpjlhcad+4b77yizbMMInbpjmhOu7S5gf3d6qL+WShIQl77Jh/fgnbhIS3r+IgUpISJvOC8lhv6WlQsu3vI4Ia6wNtl3o+aBlG4R0DvBkd9pC/6ee0xfSW9iP1ASFRKda22ZtFl7vb/rBkIkK/7afXUYOTZnfScJC15iPKAjvg1AxCCE0QagYhBCaIFQMQghNECoGIYQmCBWDEEIThIpBCKEJQsUghNAEoWIQQmiCUDEIITRBqBiEEJogVAxCCE0QKgYhhCYIFYMQQhOEikEIoQlCxSCE0AShYhBCaIJQMQghNEGoGIQQmiBUDEIITRAqBiGEJggVgxBCE4SKQQihCULFIITQBKFiEEJoglAxCCE0QagYhBCaIFQMQghNECoGoUB4iHn91THHA/oIJQdNNpjbKZ21hLIjXxurV07xEi5jAiorl/gJdzEBVR2bELLnsWrEnWbmJRQd29tQrieP1xTmMQ32XE+PrynM9jERtvYc0FeYzJTIn7fnKUzlw4aZ7UMIZWfZh84C9Bdmz+ofqF/WIyH9hVm2jcl5bGvzuQtLDxkcbtXu3yaDsgvyETKH0F/frC+DfuQ2+XuNk2ddhf3qIRPLVbiKe3kBchVS8BOJm85Z2Lq3qbOQ+6KZbO7CadwL9M5daL1FSjCBkFvySTSJsPzGJtVEQtrEvUivZEKatOePUSi8GvOWzP1i4bX1aTyI2Ya97W9KGL1d54Wimw0IkwpCCCHUD0IXYSLbEXeNAgoTe1TGJFojYoTJ7JoV4jayJcLsU1tT1iKkMKnHLEz8Pq9E+K7NKUm2ssAuf661PY+JgLwwvfmich/NUZidtEV3SfeELC/9WdtU6Fu6LGQRLrRRhax79UJhtkjn08b+MIJYmM6seBH7qoTZ4aiNuzbz2kWonGQW+UXzQdnzKRfdq/32ByGIaNHz9WJ5AAAAAElFTkSuQmCC;" parent="1" vertex="1">
          <mxGeometry x="401" y="95" width="90" height="90" as="geometry" />
        </mxCell>
        <mxCell id="VaUqc74PP2qwAAMpVHkm-11" value="MDA" style="shape=cylinder3;whiteSpace=wrap;html=1;boundedLbl=1;backgroundOutline=1;size=15;" parent="1" vertex="1">
          <mxGeometry x="541" y="105" width="60" height="80" as="geometry" />
        </mxCell>
        <mxCell id="VaUqc74PP2qwAAMpVHkm-12" value="Modelo digital de Aguas (Acueducto y Alcantarillado)" style="text;html=1;strokeColor=none;fillColor=none;align=center;verticalAlign=middle;whiteSpace=wrap;rounded=0;" parent="1" vertex="1">
          <mxGeometry x="261" y="205" width="80" height="40" as="geometry" />
        </mxCell>
        <mxCell id="VaUqc74PP2qwAAMpVHkm-13" value="Reutiliza el MDA para este fin específico" style="text;html=1;strokeColor=none;fillColor=none;align=center;verticalAlign=middle;whiteSpace=wrap;rounded=0;" parent="1" vertex="1">
          <mxGeometry x="521" y="190" width="120" height="40" as="geometry" />
        </mxCell>
        <mxCell id="VaUqc74PP2qwAAMpVHkm-14" value="" style="endArrow=classic;html=1;rounded=0;" parent="1" edge="1">
          <mxGeometry relative="1" as="geometry">
            <mxPoint x="391" y="195" as="sourcePoint" />
            <mxPoint x="491" y="195" as="targetPoint" />
          </mxGeometry>
        </mxCell>
        <mxCell id="VaUqc74PP2qwAAMpVHkm-15" value="Reutiliza" style="edgeLabel;resizable=0;html=1;align=center;verticalAlign=middle;" parent="VaUqc74PP2qwAAMpVHkm-14" connectable="0" vertex="1">
          <mxGeometry relative="1" as="geometry" />
        </mxCell>
        <mxCell id="VaUqc74PP2qwAAMpVHkm-16" value="" style="shape=image;verticalLabelPosition=bottom;labelBackgroundColor=default;verticalAlign=top;aspect=fixed;imageAspect=0;image=https://www.unite.ai/wp-content/uploads/2023/01/etl-1-990x600.png;" parent="1" vertex="1">
          <mxGeometry x="359" y="235" width="132" height="80" as="geometry" />
        </mxCell>
        <mxCell id="VaUqc74PP2qwAAMpVHkm-17" value="ETL que en un periodo que está &lt;b&gt;sin definir&lt;/b&gt;, se actualiza el MDA, con todos sus estados" style="text;html=1;strokeColor=none;fillColor=none;align=center;verticalAlign=middle;whiteSpace=wrap;rounded=0;" parent="1" vertex="1">
          <mxGeometry x="267.5" y="330" width="362.5" height="30" as="geometry" />
        </mxCell>
        <mxCell id="VaUqc74PP2qwAAMpVHkm-18" value="" style="shape=flexArrow;endArrow=classic;html=1;rounded=0;" parent="1" edge="1">
          <mxGeometry width="50" height="50" relative="1" as="geometry">
            <mxPoint x="301" y="265" as="sourcePoint" />
            <mxPoint x="391" y="265" as="targetPoint" />
          </mxGeometry>
        </mxCell>
        <mxCell id="VaUqc74PP2qwAAMpVHkm-19" value="" style="shape=flexArrow;endArrow=classic;html=1;rounded=0;" parent="1" edge="1">
          <mxGeometry width="50" height="50" relative="1" as="geometry">
            <mxPoint x="461" y="265" as="sourcePoint" />
            <mxPoint x="551" y="265" as="targetPoint" />
          </mxGeometry>
        </mxCell>
        <mxCell id="VaUqc74PP2qwAAMpVHkm-20" value="En esta sincronización, se trae la información&amp;nbsp;" style="rounded=0;whiteSpace=wrap;html=1;" parent="1" vertex="1">
          <mxGeometry x="307.25" y="370" width="262.75" height="40" as="geometry" />
        </mxCell>
        <mxCell id="VaUqc74PP2qwAAMpVHkm-21" value="Elementos en fase de:&amp;nbsp;" style="text;html=1;strokeColor=none;fillColor=none;align=center;verticalAlign=middle;whiteSpace=wrap;rounded=0;" parent="1" vertex="1">
          <mxGeometry x="354.5" y="410" width="160" height="30" as="geometry" />
        </mxCell>
        <mxCell id="VaUqc74PP2qwAAMpVHkm-22" value="&lt;h1&gt;Planeación&lt;/h1&gt;&lt;p style=&quot;text-align: justify;&quot;&gt;Se propone utilizar la fecha estimada de la instalación que viene en el MDA (Se poblaría con la &lt;b&gt;FPO&lt;/b&gt;: Fecha estimada de puesta en operación).&lt;/p&gt;" style="text;html=1;strokeColor=none;fillColor=none;spacing=5;spacingTop=-20;whiteSpace=wrap;overflow=hidden;rounded=0;" parent="1" vertex="1">
          <mxGeometry x="-214.5" y="496" width="190" height="120" as="geometry" />
        </mxCell>
        <mxCell id="VaUqc74PP2qwAAMpVHkm-23" value="En el modelo, existen dos&amp;nbsp;&lt;br&gt;campo&amp;nbsp; fechas, que son probables&lt;br style=&quot;border-color: var(--border-color);&quot;&gt;de ser reutilizadas (Definir si se reutiliza o se crea un campo nuevo), eso lo define la unidad de gestión de información del negocio." style="shape=note;whiteSpace=wrap;html=1;backgroundOutline=1;darkOpacity=0.05;" parent="1" vertex="1">
          <mxGeometry x="-24.5" y="310" width="254.5" height="95" as="geometry" />
        </mxCell>
        <mxCell id="VaUqc74PP2qwAAMpVHkm-24" value="" style="endArrow=classic;html=1;rounded=0;exitX=0.25;exitY=0;exitDx=0;exitDy=0;entryX=0.5;entryY=1;entryDx=0;entryDy=0;entryPerimeter=0;" parent="1" source="VaUqc74PP2qwAAMpVHkm-22" target="VaUqc74PP2qwAAMpVHkm-23" edge="1">
          <mxGeometry width="50" height="50" relative="1" as="geometry">
            <mxPoint x="420" y="705" as="sourcePoint" />
            <mxPoint x="470" y="655" as="targetPoint" />
          </mxGeometry>
        </mxCell>
        <mxCell id="VaUqc74PP2qwAAMpVHkm-163" value="" style="edgeStyle=orthogonalEdgeStyle;rounded=0;orthogonalLoop=1;jettySize=auto;html=1;" parent="1" source="VaUqc74PP2qwAAMpVHkm-25" target="VaUqc74PP2qwAAMpVHkm-23" edge="1">
          <mxGeometry relative="1" as="geometry">
            <Array as="points">
              <mxPoint x="85" y="460" />
              <mxPoint x="103" y="460" />
            </Array>
          </mxGeometry>
        </mxCell>
        <mxCell id="VaUqc74PP2qwAAMpVHkm-25" value="&lt;h1&gt;Diseño&lt;/h1&gt;&lt;div&gt;Para este estado, se propone utilizar la fecha estimada de la instalación, igual al campo que existe en el MDA&lt;/div&gt;" style="text;html=1;strokeColor=none;fillColor=none;spacing=5;spacingTop=-20;whiteSpace=wrap;overflow=hidden;rounded=0;" parent="1" vertex="1">
          <mxGeometry x="-10" y="506" width="190" height="120" as="geometry" />
        </mxCell>
        <mxCell id="VaUqc74PP2qwAAMpVHkm-26" value="&lt;h1&gt;Construcción&lt;/h1&gt;&lt;div&gt;Se propone utilizar la fecha de instalación que viene en el MDA&lt;/div&gt;" style="text;html=1;strokeColor=none;fillColor=none;spacing=5;spacingTop=-20;whiteSpace=wrap;overflow=hidden;rounded=0;" parent="1" vertex="1">
          <mxGeometry x="180" y="516" width="170" height="100" as="geometry" />
        </mxCell>
        <mxCell id="VaUqc74PP2qwAAMpVHkm-27" value="&lt;h1&gt;Operación&lt;/h1&gt;&lt;div&gt;Se propone utilizar la fecha de instalación que viene en el MDA&lt;/div&gt;" style="text;html=1;strokeColor=none;fillColor=none;spacing=5;spacingTop=-20;whiteSpace=wrap;overflow=hidden;rounded=0;" parent="1" vertex="1">
          <mxGeometry x="351" y="516" width="170" height="100" as="geometry" />
        </mxCell>
        <mxCell id="VaUqc74PP2qwAAMpVHkm-28" value="" style="shape=flexArrow;endArrow=classic;html=1;rounded=0;entryX=0.618;entryY=0.018;entryDx=0;entryDy=0;entryPerimeter=0;" parent="1" source="VaUqc74PP2qwAAMpVHkm-21" target="VaUqc74PP2qwAAMpVHkm-22" edge="1">
          <mxGeometry width="50" height="50" relative="1" as="geometry">
            <mxPoint x="265.5" y="418.59" as="sourcePoint" />
            <mxPoint x="7" y="509.9973550212165" as="targetPoint" />
          </mxGeometry>
        </mxCell>
        <mxCell id="VaUqc74PP2qwAAMpVHkm-29" value="" style="shape=flexArrow;endArrow=classic;html=1;rounded=0;entryX=0.5;entryY=0;entryDx=0;entryDy=0;" parent="1" source="VaUqc74PP2qwAAMpVHkm-21" edge="1">
          <mxGeometry width="50" height="50" relative="1" as="geometry">
            <mxPoint x="321.63" y="460" as="sourcePoint" />
            <mxPoint x="181.38" y="480" as="targetPoint" />
          </mxGeometry>
        </mxCell>
        <mxCell id="VaUqc74PP2qwAAMpVHkm-30" value="" style="shape=flexArrow;endArrow=classic;html=1;rounded=0;exitX=0.25;exitY=1;exitDx=0;exitDy=0;entryX=0.434;entryY=-0.026;entryDx=0;entryDy=0;endWidth=20;endSize=4.45;entryPerimeter=0;" parent="1" source="VaUqc74PP2qwAAMpVHkm-21" target="VaUqc74PP2qwAAMpVHkm-26" edge="1">
          <mxGeometry width="50" height="50" relative="1" as="geometry">
            <mxPoint x="313.69" y="440" as="sourcePoint" />
            <mxPoint x="255.69" y="465" as="targetPoint" />
          </mxGeometry>
        </mxCell>
        <mxCell id="VaUqc74PP2qwAAMpVHkm-31" value="" style="shape=flexArrow;endArrow=classic;html=1;rounded=0;entryX=0.5;entryY=0;entryDx=0;entryDy=0;" parent="1" source="VaUqc74PP2qwAAMpVHkm-21" target="VaUqc74PP2qwAAMpVHkm-27" edge="1">
          <mxGeometry width="50" height="50" relative="1" as="geometry">
            <mxPoint x="391" y="480" as="sourcePoint" />
            <mxPoint x="140" y="525" as="targetPoint" />
          </mxGeometry>
        </mxCell>
        <mxCell id="VaUqc74PP2qwAAMpVHkm-32" value="" style="strokeWidth=2;html=1;shape=mxgraph.flowchart.annotation_2;align=left;labelPosition=right;pointerEvents=1;rotation=-90;" parent="1" vertex="1">
          <mxGeometry x="481.5" y="50" width="70" height="1180" as="geometry" />
        </mxCell>
        <mxCell id="VaUqc74PP2qwAAMpVHkm-33" value="" style="shape=image;verticalLabelPosition=bottom;labelBackgroundColor=default;verticalAlign=top;aspect=fixed;imageAspect=0;image=https://e7.pngegg.com/pngimages/997/429/png-clipart-black-traffic-light-illustration-traffic-light-computer-icons-symbol-traffic-light-s-image-file-formats-color.png;" parent="1" vertex="1">
          <mxGeometry x="676.5" y="670" width="80" height="80" as="geometry" />
        </mxCell>
        <mxCell id="VaUqc74PP2qwAAMpVHkm-34" value="Los estados deben en el visor poder diferenciarse de manera visual (Fácil de identificar). &lt;b&gt;Sin más definición.&lt;/b&gt;" style="text;html=1;strokeColor=none;fillColor=none;align=center;verticalAlign=middle;whiteSpace=wrap;rounded=0;" parent="1" vertex="1">
          <mxGeometry x="57.5" y="680" width="619" height="30" as="geometry" />
        </mxCell>
        <mxCell id="VaUqc74PP2qwAAMpVHkm-35" value="" style="endArrow=none;html=1;rounded=0;" parent="1" edge="1">
          <mxGeometry width="50" height="50" relative="1" as="geometry">
            <mxPoint x="50" y="640" as="sourcePoint" />
            <mxPoint x="50" y="615" as="targetPoint" />
          </mxGeometry>
        </mxCell>
        <mxCell id="VaUqc74PP2qwAAMpVHkm-36" value="" style="endArrow=none;html=1;rounded=0;" parent="1" edge="1">
          <mxGeometry width="50" height="50" relative="1" as="geometry">
            <mxPoint x="593" y="640" as="sourcePoint" />
            <mxPoint x="593" y="615" as="targetPoint" />
          </mxGeometry>
        </mxCell>
        <mxCell id="VaUqc74PP2qwAAMpVHkm-37" value="Hasta el momento, lo que se tiene es&lt;i style=&quot;text-align: justify; background-color: initial;&quot;&gt;&amp;nbsp;el modelo integrado de información del territorio con la información de la red&lt;br&gt;del modelo de aguas actualizado&lt;/i&gt;&lt;p style=&quot;text-align:justify&quot; class=&quot;MsoNormal&quot;&gt;&lt;i&gt;&lt;span style=&quot;font-size:10.0pt;&lt;br/&gt;font-family:&amp;quot;Arial&amp;quot;,sans-serif;mso-fareast-font-family:&amp;quot;Arial Unicode MS&amp;quot;;&lt;br/&gt;mso-ansi-language:ES-CO;mso-fareast-language:ES;mso-bidi-font-weight:bold&quot;&gt;&lt;/span&gt;&lt;/i&gt;&lt;/p&gt;" style="shape=document;whiteSpace=wrap;html=1;boundedLbl=1;" parent="1" vertex="1">
          <mxGeometry x="253" y="710" width="325" height="80" as="geometry" />
        </mxCell>
        <mxCell id="VaUqc74PP2qwAAMpVHkm-38" value="Hasta el momento, se tiene &lt;br&gt;el modelo actualizado, &lt;br&gt;con los diferentes estados, sin embargo, no se tiene en cuenta en el modelo la información de reparaciones por daños o emergencias que tuvieron impacto en el pavimento y son eventos desconocidos.&amp;nbsp;" style="shape=note;whiteSpace=wrap;html=1;backgroundOutline=1;darkOpacity=0.05;" parent="1" vertex="1">
          <mxGeometry x="13" y="790" width="200" height="130" as="geometry" />
        </mxCell>
        <mxCell id="VaUqc74PP2qwAAMpVHkm-39" value="" style="shape=flexArrow;endArrow=classic;html=1;rounded=0;" parent="1" edge="1">
          <mxGeometry width="50" height="50" relative="1" as="geometry">
            <mxPoint x="213" y="820" as="sourcePoint" />
            <mxPoint x="273" y="820" as="targetPoint" />
          </mxGeometry>
        </mxCell>
        <mxCell id="VaUqc74PP2qwAAMpVHkm-40" value="Se incluyen las reparaciones a daños por emergencias, que es consolidada desde máximo y/o hidro, &lt;b&gt;que se consolida en Gesta?&lt;/b&gt;" style="rounded=0;whiteSpace=wrap;html=1;" parent="1" vertex="1">
          <mxGeometry x="276" y="800" width="396" height="40" as="geometry" />
        </mxCell>
        <mxCell id="VaUqc74PP2qwAAMpVHkm-41" value="&lt;h1&gt;Validar&lt;/h1&gt;&lt;p&gt;&lt;b&gt;Aún no se valida esta información.&lt;/b&gt;&lt;/p&gt;" style="text;html=1;strokeColor=none;fillColor=none;spacing=5;spacingTop=-20;whiteSpace=wrap;overflow=hidden;rounded=0;" parent="1" vertex="1">
          <mxGeometry x="690.5" y="740" width="107" height="110" as="geometry" />
        </mxCell>
        <mxCell id="VaUqc74PP2qwAAMpVHkm-42" value="" style="endArrow=classic;html=1;rounded=0;entryX=0;entryY=0.5;entryDx=0;entryDy=0;exitX=0.75;exitY=0;exitDx=0;exitDy=0;" parent="1" source="VaUqc74PP2qwAAMpVHkm-40" target="VaUqc74PP2qwAAMpVHkm-41" edge="1">
          <mxGeometry width="50" height="50" relative="1" as="geometry">
            <mxPoint x="563" y="970" as="sourcePoint" />
            <mxPoint x="613" y="920" as="targetPoint" />
          </mxGeometry>
        </mxCell>
        <mxCell id="VaUqc74PP2qwAAMpVHkm-43" value="" style="shape=flexArrow;endArrow=classic;html=1;rounded=0;exitX=0.299;exitY=1.085;exitDx=0;exitDy=0;exitPerimeter=0;" parent="1" source="VaUqc74PP2qwAAMpVHkm-40" edge="1">
          <mxGeometry width="50" height="50" relative="1" as="geometry">
            <mxPoint x="333" y="930" as="sourcePoint" />
            <mxPoint x="403" y="880" as="targetPoint" />
          </mxGeometry>
        </mxCell>
        <mxCell id="VaUqc74PP2qwAAMpVHkm-44" value="&lt;b&gt;Esto se agrega al modelo como una nueva capa.&lt;/b&gt;" style="rounded=0;whiteSpace=wrap;html=1;" parent="1" vertex="1">
          <mxGeometry x="260" y="880" width="274" height="30" as="geometry" />
        </mxCell>
        <mxCell id="VaUqc74PP2qwAAMpVHkm-45" value="" style="endArrow=classic;html=1;rounded=0;exitX=1;exitY=0.5;exitDx=0;exitDy=0;entryX=0;entryY=0.5;entryDx=0;entryDy=0;" parent="1" source="VaUqc74PP2qwAAMpVHkm-44" target="VaUqc74PP2qwAAMpVHkm-46" edge="1">
          <mxGeometry width="50" height="50" relative="1" as="geometry">
            <mxPoint x="583" y="930" as="sourcePoint" />
            <mxPoint x="583" y="890" as="targetPoint" />
          </mxGeometry>
        </mxCell>
        <mxCell id="VaUqc74PP2qwAAMpVHkm-46" value="Debe incluir la fecha de atención del evento&amp;nbsp;" style="text;html=1;strokeColor=none;fillColor=none;align=center;verticalAlign=middle;whiteSpace=wrap;rounded=0;" parent="1" vertex="1">
          <mxGeometry x="578" y="860" width="189" height="30" as="geometry" />
        </mxCell>
        <mxCell id="VaUqc74PP2qwAAMpVHkm-47" value="" style="shape=image;verticalLabelPosition=bottom;labelBackgroundColor=default;verticalAlign=top;aspect=fixed;imageAspect=0;image=https://cdn-icons-png.flaticon.com/512/2519/2519390.png;" parent="1" vertex="1">
          <mxGeometry x="13" y="1030" width="102" height="102" as="geometry" />
        </mxCell>
        <mxCell id="VaUqc74PP2qwAAMpVHkm-48" value="" style="strokeWidth=2;html=1;shape=mxgraph.flowchart.annotation_2;align=left;labelPosition=right;pointerEvents=1;rotation=-90;" parent="1" vertex="1">
          <mxGeometry x="348.5" y="560" width="70" height="760" as="geometry" />
        </mxCell>
        <mxCell id="VaUqc74PP2qwAAMpVHkm-49" value="&lt;b&gt;Para este proceso en el visor geográfico, se deben manejar&amp;nbsp; roles, por&amp;nbsp;&lt;i&gt;acuerdos de confidencialidad. Para esto se propone que el municipio tenga usuarios nombrados, lo que pueden ingresar al visor y hacer consultas - Tanto interno y externo.&lt;/i&gt;&lt;/b&gt;" style="text;html=1;strokeColor=none;fillColor=none;align=center;verticalAlign=middle;whiteSpace=wrap;rounded=0;" parent="1" vertex="1">
          <mxGeometry x="507.25" y="1000" width="295.5" height="120" as="geometry" />
        </mxCell>
        <mxCell id="VaUqc74PP2qwAAMpVHkm-51" value="Entrada" style="text;html=1;strokeColor=none;fillColor=none;align=center;verticalAlign=middle;whiteSpace=wrap;rounded=0;" parent="1" vertex="1">
          <mxGeometry x="245" y="260" width="60" height="30" as="geometry" />
        </mxCell>
        <mxCell id="VaUqc74PP2qwAAMpVHkm-153" value="" style="shape=image;verticalLabelPosition=bottom;labelBackgroundColor=default;verticalAlign=top;aspect=fixed;imageAspect=0;image=https://www.unite.ai/wp-content/uploads/2023/01/etl-1-990x600.png;" parent="1" vertex="1">
          <mxGeometry x="306" y="989" width="132" height="80" as="geometry" />
        </mxCell>
        <mxCell id="VaUqc74PP2qwAAMpVHkm-154" value="" style="shape=flexArrow;endArrow=classic;html=1;rounded=0;" parent="1" edge="1">
          <mxGeometry width="50" height="50" relative="1" as="geometry">
            <mxPoint x="248" y="1019" as="sourcePoint" />
            <mxPoint x="338" y="1019" as="targetPoint" />
          </mxGeometry>
        </mxCell>
        <mxCell id="VaUqc74PP2qwAAMpVHkm-155" value="" style="shape=flexArrow;endArrow=classic;html=1;rounded=0;" parent="1" edge="1">
          <mxGeometry width="50" height="50" relative="1" as="geometry">
            <mxPoint x="408" y="1019" as="sourcePoint" />
            <mxPoint x="498" y="1019" as="targetPoint" />
          </mxGeometry>
        </mxCell>
        <mxCell id="VaUqc74PP2qwAAMpVHkm-156" value="Entrada" style="text;html=1;strokeColor=none;fillColor=none;align=center;verticalAlign=middle;whiteSpace=wrap;rounded=0;" parent="1" vertex="1">
          <mxGeometry x="192" y="1014" width="60" height="30" as="geometry" />
        </mxCell>
        <mxCell id="VaUqc74PP2qwAAMpVHkm-157" value="Esto será otro ETL, para estar sincronizando la información de daños o emergencias que tuvieron impacto en el pavimento, desde GESTA. (Esto será una capa aparte al modelo de consulta) - &lt;b&gt;Por definir periodo de sincronización&lt;/b&gt;" style="text;html=1;strokeColor=none;fillColor=none;align=center;verticalAlign=middle;whiteSpace=wrap;rounded=0;" parent="1" vertex="1">
          <mxGeometry x="141.5" y="1090" width="341" height="30" as="geometry" />
        </mxCell>
        <mxCell id="VaUqc74PP2qwAAMpVHkm-162" style="edgeStyle=orthogonalEdgeStyle;rounded=0;orthogonalLoop=1;jettySize=auto;html=1;exitX=0;exitY=0.75;exitDx=0;exitDy=0;entryX=0;entryY=0.25;entryDx=0;entryDy=0;" parent="1" source="VaUqc74PP2qwAAMpVHkm-34" target="VaUqc74PP2qwAAMpVHkm-37" edge="1">
          <mxGeometry relative="1" as="geometry" />
        </mxCell>
        <mxCell id="VaUqc74PP2qwAAMpVHkm-164" value="&lt;h1&gt;Propuesto modificar&lt;/h1&gt;&lt;div&gt;Se propone utilizar la fecha de intervención que viene en el MDA&lt;/div&gt;" style="text;html=1;strokeColor=none;fillColor=none;spacing=5;spacingTop=-20;whiteSpace=wrap;overflow=hidden;rounded=0;" parent="1" vertex="1">
          <mxGeometry x="521" y="506" width="189" height="130" as="geometry" />
        </mxCell>
        <mxCell id="VaUqc74PP2qwAAMpVHkm-165" value="&lt;h1&gt;Propuesto retirar&lt;/h1&gt;&lt;div&gt;Se propone utilizar la fecha de intervención que viene en el MDA&lt;/div&gt;" style="text;html=1;strokeColor=none;fillColor=none;spacing=5;spacingTop=-20;whiteSpace=wrap;overflow=hidden;rounded=0;" parent="1" vertex="1">
          <mxGeometry x="704.5" y="502" width="170" height="130" as="geometry" />
        </mxCell>
        <mxCell id="VaUqc74PP2qwAAMpVHkm-166" value="&lt;h1&gt;Retirado&lt;/h1&gt;&lt;div&gt;Se propone utilizar la fecha de retiro que viene en el MDA&lt;/div&gt;" style="text;html=1;strokeColor=none;fillColor=none;spacing=5;spacingTop=-20;whiteSpace=wrap;overflow=hidden;rounded=0;" parent="1" vertex="1">
          <mxGeometry x="859" y="508" width="170" height="130" as="geometry" />
        </mxCell>
        <mxCell id="VaUqc74PP2qwAAMpVHkm-167" value="&lt;h1&gt;Fuera de servicio&lt;/h1&gt;&lt;div&gt;Se propone utilizar la fecha de retiro que viene en el MDA&lt;/div&gt;" style="text;html=1;strokeColor=none;fillColor=none;spacing=5;spacingTop=-20;whiteSpace=wrap;overflow=hidden;rounded=0;" parent="1" vertex="1">
          <mxGeometry x="1029" y="506" width="209" height="130" as="geometry" />
        </mxCell>
        <mxCell id="VaUqc74PP2qwAAMpVHkm-169" value="" style="shape=flexArrow;endArrow=classic;html=1;rounded=0;" parent="1" source="VaUqc74PP2qwAAMpVHkm-21" target="VaUqc74PP2qwAAMpVHkm-164" edge="1">
          <mxGeometry width="50" height="50" relative="1" as="geometry">
            <mxPoint x="548.5" y="425" as="sourcePoint" />
            <mxPoint x="511.5" y="485" as="targetPoint" />
          </mxGeometry>
        </mxCell>
        <mxCell id="VaUqc74PP2qwAAMpVHkm-170" value="" style="shape=flexArrow;endArrow=classic;html=1;rounded=0;exitX=0.868;exitY=0.973;exitDx=0;exitDy=0;exitPerimeter=0;" parent="1" source="VaUqc74PP2qwAAMpVHkm-21" target="VaUqc74PP2qwAAMpVHkm-165" edge="1">
          <mxGeometry width="50" height="50" relative="1" as="geometry">
            <mxPoint x="678.5" y="455" as="sourcePoint" />
            <mxPoint x="741.5" y="495" as="targetPoint" />
          </mxGeometry>
        </mxCell>
        <mxCell id="VaUqc74PP2qwAAMpVHkm-171" value="" style="shape=flexArrow;endArrow=classic;html=1;rounded=0;" parent="1" source="VaUqc74PP2qwAAMpVHkm-21" edge="1">
          <mxGeometry width="50" height="50" relative="1" as="geometry">
            <mxPoint x="700" y="413" as="sourcePoint" />
            <mxPoint x="915" y="485" as="targetPoint" />
          </mxGeometry>
        </mxCell>
        <mxCell id="VaUqc74PP2qwAAMpVHkm-172" value="" style="shape=flexArrow;endArrow=classic;html=1;rounded=0;entryX=0.368;entryY=-0.006;entryDx=0;entryDy=0;entryPerimeter=0;exitX=0.75;exitY=1;exitDx=0;exitDy=0;" parent="1" source="VaUqc74PP2qwAAMpVHkm-21" target="VaUqc74PP2qwAAMpVHkm-167" edge="1">
          <mxGeometry width="50" height="50" relative="1" as="geometry">
            <mxPoint x="639.5" y="430" as="sourcePoint" />
            <mxPoint x="1039.5" y="472" as="targetPoint" />
          </mxGeometry>
        </mxCell>
        <mxCell id="VaUqc74PP2qwAAMpVHkm-174" value="" style="endArrow=none;html=1;rounded=0;" parent="1" edge="1">
          <mxGeometry width="50" height="50" relative="1" as="geometry">
            <mxPoint x="264.07" y="639" as="sourcePoint" />
            <mxPoint x="264.07" y="614" as="targetPoint" />
          </mxGeometry>
        </mxCell>
        <mxCell id="VaUqc74PP2qwAAMpVHkm-175" value="" style="endArrow=none;html=1;rounded=0;" parent="1" edge="1">
          <mxGeometry width="50" height="50" relative="1" as="geometry">
            <mxPoint x="431.07" y="641" as="sourcePoint" />
            <mxPoint x="431.07" y="616" as="targetPoint" />
          </mxGeometry>
        </mxCell>
        <mxCell id="VaUqc74PP2qwAAMpVHkm-176" value="" style="endArrow=none;html=1;rounded=0;" parent="1" edge="1">
          <mxGeometry width="50" height="50" relative="1" as="geometry">
            <mxPoint x="790" y="641" as="sourcePoint" />
            <mxPoint x="790" y="616" as="targetPoint" />
          </mxGeometry>
        </mxCell>
        <mxCell id="VaUqc74PP2qwAAMpVHkm-178" value="" style="endArrow=none;html=1;rounded=0;" parent="1" edge="1">
          <mxGeometry width="50" height="50" relative="1" as="geometry">
            <mxPoint x="943.76" y="641" as="sourcePoint" />
            <mxPoint x="943.76" y="616" as="targetPoint" />
          </mxGeometry>
        </mxCell>
        <mxCell id="KCo-OxDvwv0sq-fdsRgm-1" value="HU05&lt;i&gt; &lt;/i&gt;Cargue de información de intervenciones a la malla vial" style="rounded=0;whiteSpace=wrap;html=1;" parent="1" vertex="1">
          <mxGeometry x="824.5" y="780" width="239" height="60" as="geometry" />
        </mxCell>
        <mxCell id="KCo-OxDvwv0sq-fdsRgm-3" value="" style="shape=document;whiteSpace=wrap;html=1;boundedLbl=1;" parent="1" vertex="1">
          <mxGeometry x="308" y="2233" width="470" height="120" as="geometry" />
        </mxCell>
        <mxCell id="KCo-OxDvwv0sq-fdsRgm-4" value="&lt;p style=&quot;&quot; class=&quot;MsoNormal&quot;&gt;HU08 Escenario 10 y 11&lt;br&gt;Consulta para visualización de la información del territorio-municipio: aguas, POT, proyectos y fechas estimadas de ejecución&lt;i&gt;&lt;/i&gt;&lt;br&gt;&lt;/p&gt;" style="rounded=0;whiteSpace=wrap;html=1;align=center;" parent="1" vertex="1">
          <mxGeometry x="312" y="1250" width="360" height="63" as="geometry" />
        </mxCell>
        <mxCell id="KCo-OxDvwv0sq-fdsRgm-5" value="Widget de Consulta, las funcionalidades de consulta serán:" style="text;html=1;strokeColor=none;fillColor=none;align=center;verticalAlign=middle;whiteSpace=wrap;rounded=0;" parent="1" vertex="1">
          <mxGeometry x="390" y="1353" width="204" height="50" as="geometry" />
        </mxCell>
        <mxCell id="KCo-OxDvwv0sq-fdsRgm-6" value="" style="endArrow=classic;html=1;rounded=0;exitX=0.5;exitY=1;exitDx=0;exitDy=0;entryX=0.5;entryY=0;entryDx=0;entryDy=0;" parent="1" source="KCo-OxDvwv0sq-fdsRgm-4" target="KCo-OxDvwv0sq-fdsRgm-5" edge="1">
          <mxGeometry width="50" height="50" relative="1" as="geometry">
            <mxPoint x="509" y="1570" as="sourcePoint" />
            <mxPoint x="559" y="1520" as="targetPoint" />
          </mxGeometry>
        </mxCell>
        <mxCell id="KCo-OxDvwv0sq-fdsRgm-7" value="" style="shape=image;verticalLabelPosition=bottom;labelBackgroundColor=default;verticalAlign=top;aspect=fixed;imageAspect=0;image=https://i.ytimg.com/vi/EHQRx41FlOs/maxresdefault.jpg;clipPath=inset(35.21% 31.33% 20.41% 36.67%);" parent="1" vertex="1">
          <mxGeometry x="118.3" y="1463" width="102.4" height="80" as="geometry" />
        </mxCell>
        <mxCell id="KCo-OxDvwv0sq-fdsRgm-8" value="&lt;h1&gt;Área definida por el usuario&lt;/h1&gt;&lt;p style=&quot;text-align: justify;&quot;&gt;El usuario tendrá la posibilidad de dibujar un polígono a mano alzada o a partir de una geometría (Círculo, Cuadrado, Rectangulo, etc)&amp;nbsp; de la zona de interés de consulta&lt;/p&gt;" style="text;html=1;strokeColor=none;fillColor=none;spacing=5;spacingTop=-20;whiteSpace=wrap;overflow=hidden;rounded=0;" parent="1" vertex="1">
          <mxGeometry x="242" y="1433" width="190" height="170" as="geometry" />
        </mxCell>
        <mxCell id="KCo-OxDvwv0sq-fdsRgm-9" value="" style="shape=image;verticalLabelPosition=bottom;labelBackgroundColor=default;verticalAlign=top;aspect=fixed;imageAspect=0;image=https://cdn-icons-png.flaticon.com/512/29/29165.png;" parent="1" vertex="1">
          <mxGeometry x="811" y="1403" width="90" height="90" as="geometry" />
        </mxCell>
        <mxCell id="KCo-OxDvwv0sq-fdsRgm-10" value="&lt;h1&gt;Consulta Alfanumérica&lt;/h1&gt;&lt;p style=&quot;text-align: justify;&quot;&gt;El usuario podrá realizar la consulta a partir de campos del modelo, (Departamento, Municipio, Ipid y/o fid del elemento de red, entre otros &lt;font color=&quot;#ff3333&quot;&gt;(Por definir)&lt;/font&gt;&lt;/p&gt;" style="text;html=1;strokeColor=none;fillColor=none;spacing=5;spacingTop=-20;whiteSpace=wrap;overflow=hidden;rounded=0;" parent="1" vertex="1">
          <mxGeometry x="618" y="1423" width="190" height="170" as="geometry" />
        </mxCell>
        <mxCell id="KCo-OxDvwv0sq-fdsRgm-11" value="" style="shape=flexArrow;endArrow=classic;html=1;rounded=0;exitX=0;exitY=0.5;exitDx=0;exitDy=0;entryX=0.5;entryY=0;entryDx=0;entryDy=0;" parent="1" source="KCo-OxDvwv0sq-fdsRgm-5" target="KCo-OxDvwv0sq-fdsRgm-8" edge="1">
          <mxGeometry width="50" height="50" relative="1" as="geometry">
            <mxPoint x="548" y="1723" as="sourcePoint" />
            <mxPoint x="598" y="1673" as="targetPoint" />
          </mxGeometry>
        </mxCell>
        <mxCell id="KCo-OxDvwv0sq-fdsRgm-12" value="" style="shape=flexArrow;endArrow=classic;html=1;rounded=0;exitX=1;exitY=0.5;exitDx=0;exitDy=0;entryX=0.25;entryY=0;entryDx=0;entryDy=0;" parent="1" source="KCo-OxDvwv0sq-fdsRgm-5" target="KCo-OxDvwv0sq-fdsRgm-10" edge="1">
          <mxGeometry width="50" height="50" relative="1" as="geometry">
            <mxPoint x="672" y="1643" as="sourcePoint" />
            <mxPoint x="688" y="1373" as="targetPoint" />
          </mxGeometry>
        </mxCell>
        <mxCell id="KCo-OxDvwv0sq-fdsRgm-13" value="" style="shape=flexArrow;endArrow=classic;html=1;rounded=0;exitX=0.5;exitY=1;exitDx=0;exitDy=0;" parent="1" source="KCo-OxDvwv0sq-fdsRgm-8" edge="1">
          <mxGeometry width="50" height="50" relative="1" as="geometry">
            <mxPoint x="538" y="1733" as="sourcePoint" />
            <mxPoint x="428" y="1683" as="targetPoint" />
          </mxGeometry>
        </mxCell>
        <mxCell id="KCo-OxDvwv0sq-fdsRgm-14" value="" style="shape=flexArrow;endArrow=classic;html=1;rounded=0;exitX=0.25;exitY=1;exitDx=0;exitDy=0;" parent="1" source="KCo-OxDvwv0sq-fdsRgm-10" edge="1">
          <mxGeometry width="50" height="50" relative="1" as="geometry">
            <mxPoint x="688" y="1793" as="sourcePoint" />
            <mxPoint x="568" y="1683" as="targetPoint" />
          </mxGeometry>
        </mxCell>
        <mxCell id="KCo-OxDvwv0sq-fdsRgm-15" value="Consulta al&amp;nbsp;&lt;i&gt;modelo&lt;br/&gt;integrado de información geográfica del territorio donde EPM casa matriz opere&lt;/i&gt;&lt;br&gt;&amp;nbsp;" style="rounded=1;whiteSpace=wrap;html=1;" parent="1" vertex="1">
          <mxGeometry x="426.5" y="1693" width="164" height="70" as="geometry" />
        </mxCell>
        <mxCell id="KCo-OxDvwv0sq-fdsRgm-16" value="" style="shape=flexArrow;endArrow=classic;html=1;rounded=0;exitX=0.5;exitY=1;exitDx=0;exitDy=0;" parent="1" source="KCo-OxDvwv0sq-fdsRgm-15" edge="1">
          <mxGeometry width="50" height="50" relative="1" as="geometry">
            <mxPoint x="608" y="1923" as="sourcePoint" />
            <mxPoint x="509" y="1833" as="targetPoint" />
          </mxGeometry>
        </mxCell>
        <mxCell id="KCo-OxDvwv0sq-fdsRgm-17" value="" style="swimlane;startSize=0;" parent="1" vertex="1">
          <mxGeometry x="50" y="1955" width="453.5" height="68" as="geometry" />
        </mxCell>
        <mxCell id="KCo-OxDvwv0sq-fdsRgm-18" value="Visualizar la información de &lt;br&gt;infraestructura de manera integrada&amp;nbsp;&lt;br&gt;(Acueducto, Alcantarillado,&amp;nbsp;POT, Intervenciones de la malla vial y proyectos)" style="text;html=1;align=center;verticalAlign=middle;resizable=0;points=[];autosize=1;strokeColor=none;fillColor=none;" parent="KCo-OxDvwv0sq-fdsRgm-17" vertex="1">
          <mxGeometry x="11.75" width="430" height="60" as="geometry" />
        </mxCell>
        <mxCell id="KCo-OxDvwv0sq-fdsRgm-19" value="" style="shape=flexArrow;endArrow=classic;html=1;rounded=0;exitX=0.335;exitY=1.029;exitDx=0;exitDy=0;exitPerimeter=0;" parent="1" source="KCo-OxDvwv0sq-fdsRgm-18" edge="1">
          <mxGeometry width="50" height="50" relative="1" as="geometry">
            <mxPoint x="571.5" y="2183" as="sourcePoint" />
            <mxPoint x="232" y="2073" as="targetPoint" />
          </mxGeometry>
        </mxCell>
        <mxCell id="KCo-OxDvwv0sq-fdsRgm-20" value="Se espera que a partir de los parámetros de consulta o por consulta espacial, la solución haga un barrido de todas las capas del modelo integrado del territorio y muestre los resultados" style="text;html=1;strokeColor=none;fillColor=none;align=center;verticalAlign=middle;whiteSpace=wrap;rounded=0;" parent="1" vertex="1">
          <mxGeometry x="112" y="2073" width="307" height="60" as="geometry" />
        </mxCell>
        <mxCell id="KCo-OxDvwv0sq-fdsRgm-21" value="Para esto, se requiere usar una simbología adecuada de todas las redes, proyectos e intervenciones, que facilite la identificación visual" style="text;html=1;strokeColor=none;fillColor=none;align=center;verticalAlign=middle;whiteSpace=wrap;rounded=0;" parent="1" vertex="1">
          <mxGeometry x="312" y="2213" width="460" height="70" as="geometry" />
        </mxCell>
        <mxCell id="KCo-OxDvwv0sq-fdsRgm-22" value="¿Requiere visualizar de manera conjunta la información integrada del territorio?" style="rhombus;whiteSpace=wrap;html=1;" parent="1" vertex="1">
          <mxGeometry x="364.75" y="1835" width="291" height="98" as="geometry" />
        </mxCell>
        <mxCell id="KCo-OxDvwv0sq-fdsRgm-23" value="" style="shape=flexArrow;endArrow=classic;html=1;rounded=0;exitX=0;exitY=0.5;exitDx=0;exitDy=0;" parent="1" source="KCo-OxDvwv0sq-fdsRgm-22" edge="1">
          <mxGeometry width="50" height="50" relative="1" as="geometry">
            <mxPoint x="268" y="2043" as="sourcePoint" />
            <mxPoint x="228" y="1953" as="targetPoint" />
            <Array as="points">
              <mxPoint x="228" y="1884" />
            </Array>
          </mxGeometry>
        </mxCell>
        <mxCell id="KCo-OxDvwv0sq-fdsRgm-24" value="" style="shape=flexArrow;endArrow=classic;html=1;rounded=0;exitX=1;exitY=0.5;exitDx=0;exitDy=0;" parent="1" source="KCo-OxDvwv0sq-fdsRgm-22" edge="1">
          <mxGeometry width="50" height="50" relative="1" as="geometry">
            <mxPoint x="878.5" y="1883" as="sourcePoint" />
            <mxPoint x="798" y="1952" as="targetPoint" />
            <Array as="points">
              <mxPoint x="798" y="1883" />
            </Array>
          </mxGeometry>
        </mxCell>
        <mxCell id="KCo-OxDvwv0sq-fdsRgm-25" value="Si" style="text;html=1;strokeColor=none;fillColor=none;align=center;verticalAlign=middle;whiteSpace=wrap;rounded=0;" parent="1" vertex="1">
          <mxGeometry x="264" y="1853" width="60" height="30" as="geometry" />
        </mxCell>
        <mxCell id="KCo-OxDvwv0sq-fdsRgm-26" value="No" style="text;html=1;strokeColor=none;fillColor=none;align=center;verticalAlign=middle;whiteSpace=wrap;rounded=0;" parent="1" vertex="1">
          <mxGeometry x="683" y="1853" width="60" height="30" as="geometry" />
        </mxCell>
        <mxCell id="KCo-OxDvwv0sq-fdsRgm-27" value="&lt;i&gt;&lt;span style=&quot;font-size:10.0pt;font-family:&amp;quot;Arial&amp;quot;,sans-serif;&lt;br/&gt;mso-fareast-font-family:&amp;quot;Arial Unicode MS&amp;quot;;mso-ansi-language:ES-CO;mso-fareast-language:&lt;br/&gt;ES;mso-bidi-language:AR-SA;mso-bidi-font-weight:bold&quot;&gt;Para planes y proyectos ofrecer la facilidad de visualización por colores de acuerdo con la fecha de ejecución estimada, p.e: inferior a 3 años color rojo, entre 3y 6 años: amarillo, mayores a 6 años verde &lt;font color=&quot;#ff3333&quot;&gt;(Por definir)&lt;/font&gt;&lt;/span&gt;&lt;/i&gt;" style="text;whiteSpace=wrap;html=1;" parent="1" vertex="1">
          <mxGeometry x="307" y="2263" width="470" height="90" as="geometry" />
        </mxCell>
        <mxCell id="KCo-OxDvwv0sq-fdsRgm-28" value="" style="swimlane;startSize=0;" parent="1" vertex="1">
          <mxGeometry x="588" y="1955" width="323.5" height="68" as="geometry" />
        </mxCell>
        <mxCell id="KCo-OxDvwv0sq-fdsRgm-29" value="El sistema permite que el usuario, seleccione ya se &lt;br&gt;una o más capas de interés para el resultado&lt;br&gt;&amp;nbsp;por el parámetro de consulta o por consulta espacial" style="text;html=1;align=center;verticalAlign=middle;resizable=0;points=[];autosize=1;strokeColor=none;fillColor=none;" parent="KCo-OxDvwv0sq-fdsRgm-28" vertex="1">
          <mxGeometry x="11" y="4" width="310" height="60" as="geometry" />
        </mxCell>
        <mxCell id="KCo-OxDvwv0sq-fdsRgm-30" value="" style="shape=flexArrow;endArrow=classic;html=1;rounded=0;exitX=0.335;exitY=1.029;exitDx=0;exitDy=0;exitPerimeter=0;" parent="1" edge="1">
          <mxGeometry width="50" height="50" relative="1" as="geometry">
            <mxPoint x="713" y="2023" as="sourcePoint" />
            <mxPoint x="714" y="2071" as="targetPoint" />
          </mxGeometry>
        </mxCell>
        <mxCell id="KCo-OxDvwv0sq-fdsRgm-31" value="Se espera que a partir de los parámetros de consulta o por consulta espacial y las capas seleccionadas de interés, la solución haga un barrido de las capas seleccionadas&amp;nbsp; del modelo integrado del territorio y muestre los resultados" style="text;html=1;strokeColor=none;fillColor=none;align=center;verticalAlign=middle;whiteSpace=wrap;rounded=0;" parent="1" vertex="1">
          <mxGeometry x="594" y="2071" width="307" height="60" as="geometry" />
        </mxCell>
        <mxCell id="KCo-OxDvwv0sq-fdsRgm-32" value="" style="shape=flexArrow;endArrow=classic;html=1;rounded=0;exitX=0.5;exitY=1;exitDx=0;exitDy=0;entryX=0.5;entryY=0;entryDx=0;entryDy=0;" parent="1" source="KCo-OxDvwv0sq-fdsRgm-20" target="KCo-OxDvwv0sq-fdsRgm-21" edge="1">
          <mxGeometry width="50" height="50" relative="1" as="geometry">
            <mxPoint x="278" y="2353" as="sourcePoint" />
            <mxPoint x="328" y="2303" as="targetPoint" />
          </mxGeometry>
        </mxCell>
        <mxCell id="KCo-OxDvwv0sq-fdsRgm-33" value="" style="shape=flexArrow;endArrow=classic;html=1;rounded=0;exitX=0.75;exitY=1;exitDx=0;exitDy=0;entryX=0.5;entryY=0;entryDx=0;entryDy=0;" parent="1" source="KCo-OxDvwv0sq-fdsRgm-31" target="KCo-OxDvwv0sq-fdsRgm-21" edge="1">
          <mxGeometry width="50" height="50" relative="1" as="geometry">
            <mxPoint x="719" y="2163" as="sourcePoint" />
            <mxPoint x="995" y="2243" as="targetPoint" />
          </mxGeometry>
        </mxCell>
      </root>
    </mxGraphModel>
  </diagram>
</mxfile>
